<?xml version="1.0" standalone="no"?>
<!DOCTYPE svg PUBLIC "-//W3C//DTD SVG 20010904//EN"
 "http://www.w3.org/TR/2001/REC-SVG-20010904/DTD/svg10.dtd">
<svg version="1.0" xmlns="http://www.w3.org/2000/svg"
 width="225.000000pt" height="225.000000pt" viewBox="0 0 225.000000 225.000000"
 preserveAspectRatio="xMidYMid meet">
<metadata>
Created by potrace 1.14, written by Peter Selinger 2001-2017
</metadata>
<g transform="translate(0.000000,225.000000) scale(0.100000,-0.100000)"
fill="#000000" stroke="none">
<path d="M675 1939 c-132 -17 -245 -64 -314 -131 -59 -57 -108 -178 -125 -308
-8 -56 -9 -590 -2 -598 6 -5 1706 -9 1741 -4 20 3 21 9 19 270 -1 310 -7 382
-40 477 -42 120 -98 187 -200 236 -119 57 -160 62 -604 64 -223 1 -436 -2
-475 -6z"/>
<path d="M1148 792 l-38 -3 0 -63 0 -63 66 2 c43 2 69 7 75 16 12 19 11 86 -1
94 -21 13 -66 20 -102 17z m74 -28 c12 -8 10 -58 -4 -72 -7 -7 -27 -12 -45
-12 -32 0 -33 1 -33 43 0 24 3 47 7 50 6 7 60 0 75 -9z"/>
<path d="M1383 783 c-8 -14 -9 -77 -4 -113 1 -3 25 -5 54 -5 31 0 50 4 47 10
-3 6 -20 9 -37 7 -35 -3 -34 -6 -37 70 -1 44 -11 56 -23 31z"/>
<path d="M266 754 c-9 -20 -15 -39 -12 -41 3 -3 -2 -12 -10 -20 -8 -8 -12 -19
-9 -23 7 -11 35 -2 35 11 0 15 77 10 90 -6 26 -31 27 -2 2 55 -23 51 -31 60
-53 60 -19 0 -29 -8 -43 -36z m59 -14 c9 -16 14 -31 13 -31 -4 -2 -58 -5 -58
-3 0 7 23 64 26 64 2 0 10 -13 19 -30z"/>
<path d="M410 730 c0 -50 3 -60 18 -62 109 -9 119 -4 124 66 2 47 0 56 -14 56
-13 0 -18 -11 -20 -52 -3 -50 -5 -53 -32 -56 -39 -5 -49 8 -48 62 1 34 -3 46
-13 46 -12 0 -15 -14 -15 -60z"/>
<path d="M570 781 c0 -5 12 -11 27 -13 24 -3 27 -7 28 -45 2 -60 3 -63 18 -58
7 3 12 23 11 55 -1 49 -1 50 27 50 16 0 29 5 29 10 0 6 -30 10 -70 10 -38 0
-70 -4 -70 -9z"/>
<path d="M732 778 c-14 -14 -16 -77 -3 -97 12 -18 115 -21 132 -4 13 13 17 69
6 96 -5 13 -20 17 -65 17 -32 0 -63 -5 -70 -12z m107 -17 c5 -7 5 -27 2 -44
-7 -34 -26 -43 -67 -33 -20 5 -24 13 -24 41 0 21 6 37 16 43 22 12 64 9 73 -7z"/>
<path d="M1048 783 c-7 -12 -3 -111 4 -119 15 -14 23 8 23 62 0 34 -5 59 -12
61 -6 2 -13 0 -15 -4z"/>
<path d="M1536 729 c-14 -33 -26 -62 -26 -64 0 -2 9 -1 20 2 11 3 20 9 20 14
0 16 73 10 92 -8 10 -9 20 -14 23 -11 9 9 -21 69 -30 61 -4 -5 -5 -3 -2 3 13
22 -17 64 -44 64 -23 0 -30 -9 -53 -61z m76 -3 c2 -12 -4 -20 -16 -22 -30 -4
-36 4 -24 37 9 25 13 28 23 17 8 -7 15 -21 17 -32z"/>
<path d="M1692 728 l3 -62 45 0 c96 2 89 -3 87 62 l-2 57 -68 3 -68 3 3 -63z
m108 26 c0 -9 -11 -14 -30 -14 -16 0 -33 0 -37 -1 -21 -1 -12 30 9 33 34 5 58
-2 58 -18z m0 -53 c0 -26 -73 -25 -78 2 -3 14 4 17 37 17 33 0 41 -4 41 -19z"/>
<path d="M1864 776 c-14 -35 0 -51 49 -56 26 -3 47 -8 47 -12 0 -5 0 -12 0
-18 0 -14 -67 -13 -72 1 -2 6 -11 10 -21 8 -32 -7 0 -33 43 -35 56 -2 77 4 83
26 9 36 -7 46 -86 49 -12 1 -17 7 -15 19 4 21 46 24 70 4 17 -14 35 -1 23 18
-10 16 -115 12 -121 -4z"/>
<path d="M900 710 c0 -5 25 -10 55 -10 30 0 55 5 55 10 0 6 -25 10 -55 10 -30
0 -55 -4 -55 -10z"/>
<path d="M230 485 l0 -85 58 0 c559 -4 1702 -4 1703 0 1 3 2 42 3 88 l1 82
-882 0 -883 0 0 -85z"/>
</g>
</svg>
